<svg width="766" height="566" viewBox="0 0 766 566" fill="none" xmlns="http://www.w3.org/2000/svg">
<g id="triangles">
<g id="light group">
<path id="light" opacity="0.7" d="M236.281 249.309C244.276 253.855 244.394 265.336 236.495 270.047L105.857 347.953C97.9053 352.695 87.8066 347.028 87.711 337.771L86.1286 184.675C86.0329 175.418 96.0122 169.543 104.06 174.12L236.281 249.309Z" fill="#1AF4CD"/>
</g>
<g id="dark group">
<path id="dark1" opacity="0.7" d="M289.763 248.461C298.423 253.386 298.552 265.823 289.995 270.926L162.344 347.06C153.73 352.198 142.79 346.059 142.686 336.03L141.14 186.416C141.036 176.387 151.847 170.023 160.566 174.981L289.763 248.461Z" fill="#3D94E4"/>
<path id="dark2" opacity="0.7" d="M234.653 248.85C243.349 253.768 243.478 266.249 234.886 271.346L107.314 347.024C98.6997 352.134 87.7856 345.993 87.6821 335.978L86.1451 187.274C86.0416 177.259 96.8265 170.894 105.545 175.825L234.653 248.85Z" fill="#4BA7EA"/>
</g>
</g>
</svg>
